PathFileType	4	(X/Y/Z)	RBDS016\RBDS016runT25.trc
DataRate	CameraRate	NumFrames	NumMarkers	Units	OrigDataRate	OrigDataStartFrame	OrigNumFrames
150.000000	150.000000	5	33	mm	150.000000	2812	4500
Frame#	Time	L.ASIS			L.Heel.Bottom			L.Heel.Lateral			L.Heel.Top			L.Iliac.Crest			L.MT1			L.MT5			L.PSIS			L.Shank.Bottom.Lateral			L.Shank.Bottom.Medial			L.Shank.Top.Lateral			L.Shank.Top.Medial			L.Thigh.Bottom.Lateral			L.Thigh.Bottom.Medial			L.Thigh.Top.Lateral			L.Thigh.Top.Medial			R.ASIS			R.ASY			R.Heel.Bottom			R.Heel.Lateral			R.Heel.Top			R.Iliac.Crest			R.MT1			R.MT5			R.PSIS			R.Shank.Bottom.Lateral			R.Shank.Bottom.Medial			R.Shank.Top.Lateral			R.Shank.Top.Medial			R.Thigh.Bottom.Lateral			R.Thigh.Bottom.Medial			R.Thigh.Top.Lateral			R.Thigh.Top.Medial			
		X1	Y1	Z1	X2	Y2	Z2	X3	Y3	Z3	X4	Y4	Z4	X5	Y5	Z5	X6	Y6	Z6	X7	Y7	Z7	X8	Y8	Z8	X9	Y9	Z9	X10	Y10	Z10	X11	Y11	Z11	X12	Y12	Z12	X13	Y13	Z13	X14	Y14	Z14	X15	Y15	Z15	X16	Y16	Z16	X17	Y17	Z17	X18	Y18	Z18	X19	Y19	Z19	X20	Y20	Z20	X21	Y21	Z21	X22	Y22	Z22	X23	Y23	Z23	X24	Y24	Z24	X25	Y25	Z25	X26	Y26	Z26	X27	Y27	Z27	X28	Y28	Z28	X29	Y29	Z29	X30	Y30	Z30	X31	Y31	Z31	X32	Y32	Z32	X33	Y33	Z33	

2813	18.74666666666667	2476.338568564889	946.6058967741225	941.6651564554958	1938.00523104441	198.4493646376216	1013.135465859635	1959.263193769668	188.1827451984103	965.6393232300389	1975.338703339604	224.4664563692362	998.9160936544216	2428.250762126283	1029.263438700466	895.9369386823134	2114.178821513478	64.95230902515078	1025.447805900182	2055.890784425244	68.34151728035076	933.4322756937155	2294.730926252307	1010.761634607815	1010.029356694576	2047.878823880019	272.9068194322023	936.0918224184077	2036.791011982369	286.8588647018226	988.928524704889	2081.080139452155	345.6449330619863	925.3943943767756	2071.792704396123	359.2336922888483	976.7536339942194	2266.980679280053	615.386397454287	887.4868763528315	2215.083555111143	638.7311441045194	933.2622042961623	2298.087665905408	719.372693232502	870.7346445060978	2248.753549389834	741.3748424180407	915.5668932586768	2475.391083998888	969.7887524095967	1165.256800418127	2625.874617151344	129.3463459841045	1140.052279537545	2460.243908030759	49.52410476250181	1081.191486342315	2472.891670106049	70.14733788671761	1129.837406563463	2460.907968637009	101.228934386379	1088.279553537176	2406.797224356167	1047.54899841957	1209.764735953423	2667.185997137375	108.8647783011842	1102.284313505744	2617.879150642869	74.38931669167117	1195.306730417044	2297.701403038738	1008.656602932319	1109.884809539272	2497.14013347528	193.8206238682439	1165.757811617647	2464.500626861176	200.5001704979614	1126.578386776237	2486.800563353276	275.9183159902116	1185.348076318206	2453.085152405197	278.6653753381048	1144.235783682644	2476.218251246065	607.8776567624604	1215.318261110538	2419.826377329837	589.7186281276703	1174.043604495686	2431.784706447432	707.150217139094	1232.530969600962	2377.896937133184	689.601212360866	1194.949777856801	
2814	18.75333333333333	2477.401863579217	948.2541447682761	942.394805771218	1931.09693699145	209.0740249964535	1010.967812126122	1951.410220863594	197.6003430632085	963.3323307391234	1969.358504802987	233.505327315998	996.1442477541386	2429.619785927891	1032.004381189076	897.0566415104478	2102.294864240801	69.15978156670894	1023.255350976279	2043.429053264555	73.18137342807331	931.6973154104114	2295.625910691987	1013.356499178522	1009.96286235813	2042.162358633794	278.7360746128726	933.4648554514429	2031.33689605791	292.7516047767236	986.3428871449012	2077.102686343968	350.7025358858152	923.1264088460722	2067.91285535653	364.3849425930895	974.4725574577685	2266.672111895574	617.2969232447981	886.9970886251697	2215.262579786679	640.4841806577106	933.4074709589682	2298.004477437502	721.2787640366421	870.7410445692082	2249.132467693381	743.1557587463595	916.1596701953209	2475.453433620803	970.6248927100097	1165.558865059209	2640.598128735588	133.9645721969182	1136.72120151821	2478.809335484571	45.93527889901031	1078.588484990285	2490.930437813387	66.36176457211226	1127.438745787259	2476.604839001578	97.50479867686624	1086.56704239372	2407.351092327923	1048.782511610226	1210.028286624868	2682.537490524079	116.6826149402526	1098.0396754124	2636.448759016216	77.59545507698176	1191.26282659068	2298.321929393894	1010.885427219956	1109.819156682522	2508.673944308896	192.1163871440818	1163.987224688569	2475.67137732476	197.5974344037384	1124.907064690814	2494.69320343776	273.5651874012578	1184.049244612839	2460.757425366409	275.0802167369239	1143.010732916478	2471.646649605812	606.6299181046576	1215.629721654758	2415.533692886633	589.6318059728554	1173.494949212511	2428.230292804179	706.4119257725213	1232.874659862469	2374.773273575582	690.0348925743019	1194.274765959472	
2815	18.76	2478.381347323642	949.6296016842426	943.0082341484723	1924.503437024374	219.4803688977518	1008.837254893169	1943.90792674901	206.969853301767	961.0680954173679	1963.586542838823	242.4008064644257	993.5332435138662	2430.411384185677	1034.296595460613	897.9446450384961	2090.699732424218	73.66029528689731	1021.00630625158	2031.42304619404	78.52027971943777	929.8396040819118	2296.329174107295	1015.355515569574	1009.937768672674	2036.8863555414	284.4839650603622	931.0228028631536	2026.293565193987	298.6406062119512	983.9009410839568	2073.728982500487	355.5292029674354	920.99321046023	2064.632350905857	369.3760657743924	972.295056796979	2267.2955346771	618.2501203806111	886.5656043533101	2216.211293116919	641.173349735207	933.4740555984555	2298.601231092664	722.3019059720293	870.8011411932015	2250.01931050146	743.9529536609519	916.6707775845816	2475.525828941738	970.9067467337625	1165.80477156697	2653.281317213363	138.543022684239	1133.475423038513	2495.394352569702	43.20405797663989	1075.67805989286	2506.979326090031	63.4118020759743	1124.752747943065	2490.572598015597	94.52083982431706	1084.522598117203	2407.672622520795	1049.324249188861	1210.313313326672	2695.697939738406	124.209528431167	1094.061763544656	2652.599696043801	81.04435297915747	1187.323625797831	2298.77255722451	1012.477567672691	1109.784530215284	2518.82713928046	190.8839000979691	1162.006980078977	2485.565563527512	195.3065260527413	1122.995288316457	2501.671082251135	271.6217168090163	1182.521391501558	2467.590567255996	272.0630196144047	1141.540702135832	2467.476164048185	605.1047476492373	1215.916694208959	2411.788264469082	589.2201422717998	1172.763751005147	2424.803308282532	705.2738418294916	1233.252234728179	2371.944718852119	690.0149431914465	1193.451641482543	
2816	18.76666666666667	2479.263842949027	950.6939883778508	943.5266537852789	1918.222332946318	229.6566245815221	1006.7234713962	1936.810841899628	216.2838899398183	958.8378531966601	1958.039339109581	251.1521501459522	991.0918189465879	2430.660265371965	1036.074488537637	898.5880065440554	2079.437591465889	78.39476133039955	1018.724029288722	2019.977413303673	84.33835075831422	927.8441624630107	2296.84063104847	1016.683921600565	1009.938433080495	2032.082130514055	290.1792225848641	928.7818009921695	2021.708329395948	304.539102451057	981.6277507673619	2070.962728318134	360.151823415957	919.0153632945451	2061.976223786185	374.2182507221344	970.2519118279521	2268.887427865336	618.1808391036166	886.1807370513885	2217.943374193025	640.7529263484399	933.4152984325483	2299.922593343435	722.3700628892458	870.8771647267545	2251.428091063568	743.7116993541473	917.0233041204333	2475.584735034856	970.6614399030449	1166.011465807141	2663.803226908678	142.779108268852	1130.344012046279	2509.708341566936	41.08577488290452	1072.521165611996	2520.749214434491	61.08187923762576	1121.831000643972	2502.566663214595	92.085753586609	1082.171950535188	2407.742819282623	1049.189108040834	1210.613596690642	2706.591846251212	131.064605133578	1090.393339756973	2666.13115769536	84.41008076641461	1183.547915994763	2299.04777694901	1013.378950190058	1109.769768513428	2527.448193055394	189.9432028424949	1159.839545269333	2494.016613933045	193.4669578946585	1120.86878372213	2507.624831225786	269.9702954360231	1180.779056950738	2473.46164353525	269.510954844508	1139.841186661882	2463.846635127998	603.3800930350984	1216.09584452927	2408.677292539116	588.5000240696817	1171.865236336027	2421.637356705495	703.8117191640976	1233.579233261424	2369.485476693489	689.5574947334879	1192.496001399587	
2817	18.77333333333333	2480.038995036078	951.4075307641896	943.9721541841783	1912.278854792002	239.5988080661724	1004.599697306145	1930.190184700661	225.5386505095353	956.6250377326539	1952.762777118304	259.7610054196664	988.813977009597	2430.418603237383	1037.283961793465	898.9872690984305	2068.570285216952	83.31331086579966	1016.423661776439	2009.201034229071	90.60381667025814	925.6954068104518	2297.170920762734	1017.272882404552	1009.946015125718	2027.797433635672	295.8433969640709	926.7431466544175	2017.64483617948	310.4480725525391	979.5360558738408	2068.820070703319	364.5944685738471	917.2039811609176	2059.978834082795	378.9156818686172	968.3656087931628	2271.458805316756	617.052160801238	885.8325309901816	2220.459903806146	639.2034378505701	933.2014006325247	2301.98719449443	721.4373663193632	870.9309260800652	2253.361877712517	742.4014944082924	917.1529496706975	2475.599411479877	969.9269903996278	1166.20188774695	2672.101214038672	146.3713499559792	1127.337327405136	2521.50187370506	39.33767033228574	1069.210957959224	2532.010350309735	59.15103931723821	1118.753374983719	2512.384849843954	90.00835359284342	1079.574730646729	2407.547773076686	1048.403587410654	1210.921397186587	2715.188498288419	136.8801785776409	1087.032435191309	2676.925072639131	87.35227047748272	1179.968997197581	2299.147374235796	1013.542184862203	1109.759718436841	2534.42316934355	189.0990414524402	1157.526087525986	2500.889231207372	191.8988569694091	1118.576930050153	2512.468886488012	268.4726105349201	1178.856170328392	2478.265644953923	267.2957200097225	1137.950813315822	2460.862430664073	601.5160927238262	1216.089745135483	2406.241849656244	587.4770151887975	1170.826847481939	2418.852462914071	702.0936767099687	1233.768588688428	2367.443894814755	688.6772450953077	1191.431960249835	
